lc = 2.5;
Point(0) = {0, 0, 0, lc};
Point(1) = {10, 0, 0, lc};
Point(2) = {10, 10, 0, lc};
Point(3) = {0, 10, 0, lc};
Point(4) = {0, 0, 10, lc};
Point(5) = {10, 0, 10, lc};
Point(6) = {10, 10, 10, lc};
Point(7) = {0, 10, 10, lc};
Line(1) = {4, 5};
Line(2) = {5, 6};
Line(3) = {6, 7};
Line(4) = {7, 4};
Line(5) = {0, 1};
Line(6) = {1, 2};
Line(7) = {2, 3};
Line(8) = {3, 0};
Line(9) = {1, 5};
Line(10) = {4, 0};
Line(11) = {2, 6};
Line(12) = {7, 3};
Line Loop(1) = {1, 2, 3, 4};
Ruled Surface(1) = {1};
Line Loop(2) = {5, 6, 7, 8};
Ruled Surface(2) = {2};
Line Loop(3) = {5, 9, -1, 10};
Ruled Surface(3) = {3};
Line Loop(4) = {5, 9, -1, 10};
Ruled Surface(4) = {4};
Line Loop(5) = {6, 11, -2, -9};
Ruled Surface(5) = {5};
Line Loop(6) = {-8, -12, 4, 10};
Ruled Surface(6) = {6};
Line Loop(14) = {3, 12, -7, 11};
Plane Surface(14) = {14};
Surface Loop(16) = {1, 2, 3, 5, 6, 14};
Volume(16) = {16};
Physical Volume(1) = {16};
